<?xml version="1.0" encoding="UTF-8" standalone="no"?>
<!-- Created with Inkscape (http://www.inkscape.org/) -->

<svg
   width="48"
   height="48"
   viewBox="0 0 48 48"
   version="1.1"
   id="svg1"
   xml:space="preserve"
   inkscape:version="1.4.2 (ebf0e940, 2025-05-08)"
   sodipodi:docname="3ds.svg"
   xmlns:inkscape="http://www.inkscape.org/namespaces/inkscape"
   xmlns:sodipodi="http://sodipodi.sourceforge.net/DTD/sodipodi-0.dtd"
   xmlns="http://www.w3.org/2000/svg"
   xmlns:svg="http://www.w3.org/2000/svg"><sodipodi:namedview
     id="namedview1"
     pagecolor="#505050"
     bordercolor="#eeeeee"
     borderopacity="1"
     inkscape:showpageshadow="0"
     inkscape:pageopacity="0"
     inkscape:pagecheckerboard="0"
     inkscape:deskcolor="#505050"
     inkscape:document-units="px"
     inkscape:zoom="11.313709"
     inkscape:cx="10.960155"
     inkscape:cy="44.945475"
     inkscape:window-width="2560"
     inkscape:window-height="1318"
     inkscape:window-x="0"
     inkscape:window-y="31"
     inkscape:window-maximized="1"
     inkscape:current-layer="layer1" /><defs
     id="defs1" /><g
     inkscape:label="Ebene 1"
     inkscape:groupmode="layer"
     id="layer1"><path
       d="M 3.9277344,0 C 1.8194172,0 0.12109375,1.6963703 0.12109375,3.8046875 V 19.212891 c 0,0.01692 0.001735,0.03391 0.001953,0.05078 V 7.7949219 H 9.8828125 V 4.5 H 38.119141 v 3.2949219 h 9.757812 V 3.8046875 C 47.876953,1.6963703 46.17863,0 44.070312,0 Z"
       style="stroke-width:5.31969"
       id="path4" /><path
       d="M 47.876953,7.7949219 H 38.119141 V 21.441406 H 9.8828125 V 7.7949219 H 0.12304687 V 19.263672 c 0.0269447,2.084769 1.71329193,3.753906 3.80468753,3.753906 H 44.070312 c 2.108318,0 3.806641,-1.69637 3.806641,-3.804687 z"
       style="stroke-width:4.3261"
       id="path5" /><path
       d="M 47.876953,40.205078 H 35.263672 v 4.970703 H 12.736328 V 40.205078 H 0.12304687 v 3.990234 C 0.12304687,46.30363 1.8194172,48 3.9277344,48 H 44.070312 c 2.108318,0 3.806641,-1.69637 3.806641,-3.804688 z"
       style="stroke-width:5.31969"
       id="path7" /><path
       d="m 3.9277344,24.982422 c -2.0913594,0 -3.77768582,1.669188 -3.80468753,3.753906 v 11.46875 H 12.736328 v -12.03125 h 22.527344 v 12.03125 H 47.876953 V 28.787109 c 0,-2.108317 -1.698323,-3.804687 -3.806641,-3.804687 z m 2.390625,5.289062 a 2.6086955,2.6086955 0 0 1 2.609375,2.609375 2.6086955,2.6086955 0 0 1 -2.609375,2.609375 2.6086955,2.6086955 0 0 1 -2.6074219,-2.609375 2.6086955,2.6086955 0 0 1 2.6074219,-2.609375 z"
       style="stroke-width:4.3261"
       id="path6" /></g></svg>
