<?xml version="1.0" encoding="UTF-8" standalone="no"?>
<!-- Created with Inkscape (http://www.inkscape.org/) -->

<svg
   width="48"
   height="48"
   viewBox="0 0 48 48"
   version="1.1"
   id="svg1"
   xml:space="preserve"
   inkscape:version="1.4.2 (ebf0e940, 2025-05-08)"
   sodipodi:docname="gba.svg"
   xmlns:inkscape="http://www.inkscape.org/namespaces/inkscape"
   xmlns:sodipodi="http://sodipodi.sourceforge.net/DTD/sodipodi-0.dtd"
   xmlns="http://www.w3.org/2000/svg"
   xmlns:svg="http://www.w3.org/2000/svg"><sodipodi:namedview
     id="namedview1"
     pagecolor="#505050"
     bordercolor="#eeeeee"
     borderopacity="1"
     inkscape:showpageshadow="0"
     inkscape:pageopacity="0"
     inkscape:pagecheckerboard="0"
     inkscape:deskcolor="#505050"
     inkscape:document-units="px"
     inkscape:zoom="16"
     inkscape:cx="9.3125"
     inkscape:cy="19.28125"
     inkscape:window-width="2560"
     inkscape:window-height="1318"
     inkscape:window-x="0"
     inkscape:window-y="31"
     inkscape:window-maximized="1"
     inkscape:current-layer="layer1" /><defs
     id="defs1" /><g
     inkscape:label="Ebene 1"
     inkscape:groupmode="layer"
     id="layer1"><path
       d="m 23.973134,10.325287 c -0.635515,0.0044 -6.904552,0.04701 -10.164208,0.04701 -2.406548,0 -2.927961,0.11324 -4.7709093,1.285078 -0.8754871,0.556676 -4.1618279,1.604193 -6.6380797,2.082096 -1.0729639,0.207076 -1.1156404,0.584213 -1.2179141,1.121645 -0.90087352,4.733947 -1.09752795,9.55204 -1.17985424,14.115714 -0.05824093,3.228519 1.39503684,3.987506 3.50598054,4.826879 1.0959292,0.435772 2.285504,0.590095 3.4052339,0.960451 1.0863736,0.359323 1.5797899,0.583305 3.2059799,1.222391 1.710184,0.672097 3.277894,0.896107 5.39106,1.157467 3.330111,0.411875 6.625263,0.554446 8.415697,0.561941 0,-1.898775 0.0037,-4.834539 0.0089,-8.091067 H 13.081298 v -14.16944 h 10.880629 c 0.0065,-3.031053 0.01112,-5.097332 0.01123,-5.120164 z"
       style="stroke-width:5.73136"
       id="path2" /><path
       d="m 23.877799,29.614896 c -0.0084,3.256528 -0.01433,6.192293 -0.01433,8.091068 0.07712,0 0.156318,2.12e-4 0.237315,0 0,-1.898733 -0.006,-4.834416 -0.01433,-8.091068 z"
       style="stroke-width:7.26338"
       id="path5" /><path
       d="m 23.873464,10.325287 c -2.59e-4,0.02283 -0.02295,2.089111 -0.05485,5.120164 h 0.371647 c -0.0319,-3.020057 -0.05429,-5.082537 -0.05485,-5.120164 -0.168009,-2.35e-4 -0.262297,0 -0.262297,0 z"
       style="stroke-width:12.6638"
       id="path4" /><path
       d="m 24.064927,29.614896 c 0.0053,3.256652 0.0089,6.192335 0.0089,8.091068 1.790434,-0.0075 5.085586,-0.150066 8.415696,-0.561941 2.113167,-0.261361 3.680877,-0.48537 5.391061,-1.157467 1.62619,-0.639087 2.119605,-0.863068 3.20598,-1.222391 1.11973,-0.370356 2.311543,-0.524679 3.407472,-0.960451 2.110945,-0.839373 3.561984,-1.59836 3.503742,-4.82688 -0.08232,-4.563673 -0.278981,-9.381766 -1.179854,-14.115713 -0.102271,-0.537432 -0.142712,-0.914569 -1.215676,-1.121645 -2.476252,-0.477903 -5.764831,-1.52542 -6.640318,-2.082096 -1.842949,-1.171837 -2.364361,-1.285078 -4.770909,-1.285078 -3.259655,0 -9.528689,-0.04269 -10.16421,-0.04701 8.8e-5,0.03762 0.0047,2.100107 0.01123,5.120163 H 34.91867 v 14.169446 z"
       style="stroke-width:5.73136"
       id="path3" /></g></svg>
