<?xml version="1.0" encoding="UTF-8" standalone="no"?>
<!-- Created with Inkscape (http://www.inkscape.org/) -->

<svg
   width="48"
   height="48"
   viewBox="0 0 48 48"
   version="1.1"
   id="svg1"
   xml:space="preserve"
   sodipodi:docname="gc.svg"
   inkscape:version="1.4.2 (ebf0e940, 2025-05-08)"
   xmlns:inkscape="http://www.inkscape.org/namespaces/inkscape"
   xmlns:sodipodi="http://sodipodi.sourceforge.net/DTD/sodipodi-0.dtd"
   xmlns="http://www.w3.org/2000/svg"
   xmlns:svg="http://www.w3.org/2000/svg"><sodipodi:namedview
     id="namedview1"
     pagecolor="#505050"
     bordercolor="#eeeeee"
     borderopacity="1"
     inkscape:showpageshadow="0"
     inkscape:pageopacity="0"
     inkscape:pagecheckerboard="0"
     inkscape:deskcolor="#505050"
     inkscape:document-units="px"
     inkscape:zoom="6.2868325"
     inkscape:cx="33.641743"
     inkscape:cy="9.1461003"
     inkscape:window-width="1440"
     inkscape:window-height="778"
     inkscape:window-x="0"
     inkscape:window-y="31"
     inkscape:window-maximized="1"
     inkscape:current-layer="layer1" /><defs
     id="defs1" /><g
     inkscape:label="Ebene 1"
     inkscape:groupmode="layer"
     id="layer1"
     style="display:inline;fill:#ffffff"><path
       d="M 24.02363,7.134 C 23.638265,7.1396 18.563967,7.2392677 13.703002,8.6030919 12.559127,8.9240253 11.403588,9.358702 10.269641,9.833841 a 9.1515827,9.1515827 0 0 1 8.888521,9.14741 9.1515827,9.1515827 0 0 1 -0.07808,1.197875 c 0.01178,0.853991 0.08945,1.529777 0.232178,2.097821 1.879715,-0.326805 4.785336,-0.460247 4.785336,-0.460247 v -0.0082 c 0.625497,0.03583 2.904286,0.180415 4.507955,0.454082 0.135612,-0.558574 0.210436,-1.221336 0.221904,-2.05262 a 9.1515827,9.1515827 0 0 1 -0.07808,-1.197886 9.1515827,9.1515827 0 0 1 9.046729,-9.151518 C 36.641028,9.374637 35.461027,8.9302555 34.294945,8.6030919 29.257642,7.189793 24.087788,7.1364512 24.048286,7.1360546 c -1.51e-4,-1.4e-6 -0.02463,-0.00205 -0.02466,-0.00205 z"
       style="fill:#000000;stroke-width:5.25997"
       id="path38" /><path
       d="M 9.3142181,29.242292 C 8.7795398,28.762595 7.9672664,28.244813 6.6246501,27.485546 A 9.1515827,9.1515827 0 0 1 1.0277182,20.754434 c -0.44571982,3.517457 -0.83142666,7.071454 -0.99035284,10.536369 -0.07456947,1.62576 -0.05477096,3.273662 0.21985004,4.877795 0.1722301,1.006042 0.40368415,2.044215 0.8876192,2.929966 0.4787121,0.876191 1.42046,1.73401 2.4183513,1.767019 1.0184298,0.03368 2.0820647,-0.74801 2.5827252,-1.63552 0.6901637,-1.223439 1.0974857,-2.649398 1.487584,-4.168934 0.3060284,-1.192061 0.4592419,-2.429594 0.8876191,-3.583352 0.2697982,-0.726652 0.5189752,-1.486514 0.7931039,-2.235485 z"
       style="fill:#000000;stroke-width:5.25997"
       id="path35" /><path
       d="m 46.9353,20.474999 a 9.1515827,9.1515827 0 0 1 -5.652409,7.041367 c -1.279448,0.723545 -2.076562,1.228015 -2.611491,1.688942 0.279509,0.76098 0.531179,1.533817 0.805433,2.272469 0.428378,1.153758 0.58159,2.391291 0.887619,3.583352 0.390098,1.519536 0.79742,2.945495 1.487584,4.168934 0.500661,0.88751 1.564295,1.669205 2.582725,1.63552 0.997892,-0.03301 1.941695,-0.890828 2.420406,-1.767019 0.483936,-0.885751 0.715389,-1.923924 0.887619,-2.929966 0.274621,-1.604133 0.294416,-3.252035 0.21985,-4.877795 -0.16312,-3.556357 -0.56677,-7.207661 -1.027336,-10.815804 z"
       style="fill:#000000;stroke-width:5.25997"
       id="path39" /><path
       d="m 9.9532219,10.557087 a 8.4087744,8.4087744 0 0 0 -1.7444181,0.182865 8.4087744,8.4087744 0 0 0 -6.2914117,5.746924 8.4087744,8.4087744 0 0 0 -0.3739508,2.477937 8.4087744,8.4087744 0 0 0 3.6059529,6.903705 8.4087744,8.4087744 0 0 0 1.2677339,0.710917 c 1.0075062,0.566921 2.0025072,1.11754 2.5005382,1.489639 0.2581631,0.192883 0.4638657,0.371593 0.63284,0.550652 0.4508547,0.477764 0.6422567,0.953794 0.8835087,1.676614 0.01505,0.0451 0.02969,0.09058 0.0452,0.137663 a 5.9172861,5.9172861 0 0 0 1.707435,3.02448 5.9172861,5.9172861 0 0 0 4.072364,1.623192 5.9172861,5.9172861 0 0 0 5.917461,-5.915406 5.9172861,5.9172861 0 0 0 -0.184921,-1.467037 5.9172861,5.9172861 0 0 0 -1.025282,-2.120424 C 20.902352,25.453326 20.817078,25.33456 20.709437,25.221295 20.43762,24.935278 20.187456,24.677646 19.959482,24.4323 19.356617,23.783498 18.90952,23.215894 18.630108,22.416665 c -0.02238,-0.06402 -0.04348,-0.128022 -0.0637,-0.195194 -0.170816,-0.567422 -0.26494,-1.253695 -0.277381,-2.155353 A 8.4087744,8.4087744 0 0 0 18.360947,18.964813 8.4087744,8.4087744 0 0 0 18.2089,17.372441 8.4087744,8.4087744 0 0 0 9.9532198,10.557087 Z m 0.1705381,4.970257 2.473828,1.169109 0.770503,2.153298 0.06164,0.170538 0.09041,0.252724 -1.169108,2.473828 L 9.7744651,22.671444 8.7656205,22.19476 8.5765904,22.10641 7.3006379,21.502335 6.3780892,18.925774 7.5471988,16.451947 Z"
       style="fill:#000000;stroke-width:5.25997"
       id="path37" /><path
       d="m 37.88857,10.557087 a 8.4087744,8.4087744 0 0 0 -8.265953,6.860557 8.4087744,8.4087744 0 0 0 -0.143828,1.549224 8.4087744,8.4087744 0 0 0 0.07192,1.09925 c -0.01182,0.857087 -0.09557,1.518344 -0.25067,2.069057 -0.02385,0.0847 -0.05093,0.166822 -0.07808,0.246561 -0.299083,0.878327 -0.797166,1.476173 -1.479366,2.1985 -0.189851,0.20102 -0.394335,0.411716 -0.612292,0.641059 -0.107638,0.113262 -0.192911,0.232034 -0.256835,0.357513 a 5.9172861,5.9172861 0 0 0 -1.000625,2.030019 5.9172861,5.9172861 0 0 0 -0.209577,1.557442 5.9172861,5.9172861 0 0 0 5.917461,5.917461 5.9172861,5.9172861 0 0 0 4.016887,-1.571825 5.9172861,5.9172861 0 0 0 1.76291,-3.077902 c 0.04029,-0.122271 0.07914,-0.237715 0.117118,-0.34724 0.229751,-0.662646 0.440087,-1.109781 0.924603,-1.580044 0.13153,-0.127662 0.284688,-0.256909 0.462301,-0.392443 0.481128,-0.367144 1.152753,-0.780442 2.130697,-1.333484 A 8.4087744,8.4087744 0 0 0 42.729386,25.841807 8.4087744,8.4087744 0 0 0 46.2963,18.966868 8.4087744,8.4087744 0 0 0 45.168283,14.756841 8.4087744,8.4087744 0 0 0 39.96174,10.81803 8.4087744,8.4087744 0 0 0 37.888574,10.557087 Z m -6.287303,14.931316 2.664912,1.140344 0.376006,0.934877 0.702699,1.756746 -1.140345,2.666967 -0.332857,0.133553 -1.781402,0.712972 -0.577363,0.232179 -2.664912,-1.140345 -0.538325,-1.339647 -0.542434,-1.351976 0.252724,-0.593801 0.88762,-2.073166 2.574507,-1.031446 z"
       style="fill:#000000;stroke-width:5.25997"
       id="path36" /></g></svg>
