<?xml version="1.0" encoding="UTF-8" standalone="no"?>
<!-- Created with Inkscape (http://www.inkscape.org/) -->

<svg
   width="48"
   height="48"
   viewBox="0 0 48 48"
   version="1.1"
   id="svg1"
   xml:space="preserve"
   inkscape:version="1.4.2 (ebf0e940, 2025-05-08)"
   sodipodi:docname="gen.svg"
   xmlns:inkscape="http://www.inkscape.org/namespaces/inkscape"
   xmlns:sodipodi="http://sodipodi.sourceforge.net/DTD/sodipodi-0.dtd"
   xmlns="http://www.w3.org/2000/svg"
   xmlns:svg="http://www.w3.org/2000/svg"><sodipodi:namedview
     id="namedview1"
     pagecolor="#505050"
     bordercolor="#eeeeee"
     borderopacity="1"
     inkscape:showpageshadow="0"
     inkscape:pageopacity="0"
     inkscape:pagecheckerboard="0"
     inkscape:deskcolor="#505050"
     inkscape:document-units="px"
     inkscape:zoom="5.0755069"
     inkscape:cx="13.890238"
     inkscape:cy="33.986753"
     inkscape:window-width="1440"
     inkscape:window-height="778"
     inkscape:window-x="0"
     inkscape:window-y="31"
     inkscape:window-maximized="1"
     inkscape:current-layer="layer1" /><defs
     id="defs1" /><g
     inkscape:label="Ebene 1"
     inkscape:groupmode="layer"
     id="layer1"><path
       id="path6"
       style="stroke-width:5.31309"
       d="m 23.96368,9.923102 c 0,0 -8.980004,-0.075349 -16.9126491,3.87067 -4.0662316,2.022709 -7.36370988,5.248252 -7.02739378,11.672199 0.2305059,4.402875 3.29751458,8.342225 6.19307228,11.136737 3.4062817,3.287414 6.8732266,0.462429 7.8617156,-2.500888 0.811202,-2.43184 4.181401,-3.511753 6.610233,-3.930858 0.978866,-0.168908 2.915288,-0.342101 3.084083,-0.356974 0.0285,0.01052 0.05908,0.0166 0.09132,0.0166 h 0.419236 c 0.01991,0 0.03948,-0.0021 0.05811,-0.0062 0.46568,0.04223 2.098062,0.196151 2.969935,0.346596 2.428832,0.419105 5.799032,1.499018 6.610233,3.930858 0.988489,2.963317 4.455434,5.788302 7.861715,2.500888 2.895557,-2.794512 5.962567,-6.733865 6.193072,-11.136737 C 48.312676,19.042061 45.015201,15.816481 40.94897,13.793772 33.016324,9.847753 24.03632,9.923102 24.03632,9.923102 V 9.933479 H 23.96368 Z M 10.855287,18.525745 A 4.4054452,4.4054452 0 0 1 15.261418,22.9298 4.4054452,4.4054452 0 0 1 10.855287,27.33593 4.4054452,4.4054452 0 0 1 6.4512326,22.9298 4.4054452,4.4054452 0 0 1 10.855287,18.525745 Z m 31.241393,0.276031 a 2.2404666,2.2404666 0 0 1 2.239386,2.239385 2.2404666,2.2404666 0 0 1 -2.239386,2.241461 2.2404666,2.2404666 0 0 1 -2.24146,-2.241461 2.2404666,2.2404666 0 0 1 2.24146,-2.239385 z m -4.947816,2.006938 a 2.1471137,2.1471137 0 0 1 2.145991,2.14599 2.1471137,2.1471137 0 0 1 -2.145991,2.148067 2.1471137,2.1471137 0 0 1 -2.148066,-2.148067 2.1471137,2.1471137 0 0 1 2.148066,-2.14599 z m -4.808763,2.706356 a 2.0537611,2.0537611 0 0 1 2.054672,2.054672 2.0537611,2.0537611 0 0 1 -2.054672,2.052596 2.0537611,2.0537611 0 0 1 -2.052596,-2.052596 2.0537611,2.0537611 0 0 1 2.052596,-2.054672 z" /></g></svg>
