<?xml version="1.0" encoding="UTF-8" standalone="no"?>
<!-- Created with Inkscape (http://www.inkscape.org/) -->

<svg
   width="48"
   height="48"
   viewBox="0 0 48 48"
   version="1.1"
   id="svg1"
   xml:space="preserve"
   inkscape:version="1.4.2 (ebf0e940, 2025-05-08)"
   sodipodi:docname="n64.svg"
   xmlns:inkscape="http://www.inkscape.org/namespaces/inkscape"
   xmlns:sodipodi="http://sodipodi.sourceforge.net/DTD/sodipodi-0.dtd"
   xmlns="http://www.w3.org/2000/svg"
   xmlns:svg="http://www.w3.org/2000/svg"><sodipodi:namedview
     id="namedview1"
     pagecolor="#505050"
     bordercolor="#eeeeee"
     borderopacity="1"
     inkscape:showpageshadow="0"
     inkscape:pageopacity="0"
     inkscape:pagecheckerboard="0"
     inkscape:deskcolor="#505050"
     inkscape:document-units="px"
     inkscape:zoom="6.3310214"
     inkscape:cx="0.23692859"
     inkscape:cy="24.71955"
     inkscape:window-width="1440"
     inkscape:window-height="778"
     inkscape:window-x="0"
     inkscape:window-y="31"
     inkscape:window-maximized="1"
     inkscape:current-layer="layer1" /><defs
     id="defs1" /><g
     inkscape:label="Ebene 1"
     inkscape:groupmode="layer"
     id="layer1"><path
       id="path19"
       style="stroke-width:6.6356"
       d="m 23.699324,1.046 c 0,0 -4.122156,0.1022719 -7.57392,1.2726881 -0.728509,0.247021 -1.251307,0.7174181 -1.674453,1.586324 C 13.77086,5.301538 13.918329,5.1562014 12.087017,5.390247 10.819435,5.5522466 9.5674061,5.6750612 8.2922811,5.9397579 4.4990611,6.7271733 1.5775959,10.293074 1.1434547,13.967283 0.93110818,15.764411 0.66301488,17.555262 0.48507838,19.35612 c -0.3578396,3.621617 -0.7967111,5.914494 -0.1658901,10.777672 0.2250764,1.735179 0.3425879,2.343623 0.93572382,4.235382 1.3471908,4.296754 4.402546,2.959281 5.497702,0 1.06082,-2.866503 1.781909,-5.848052 2.584257,-8.797359 0.211814,-0.778598 0.538774,-1.493331 2.1436099,-1.321937 1.0337,0.110403 2.059988,0.291068 3.079335,0.495078 1.897972,0.379855 2.379324,1.782307 2.529824,2.641282 0.650761,3.714188 1.371928,7.433733 2.143612,11.10686 0.467154,2.2236 0.982581,3.877986 1.705557,5.663592 0.949997,2.346305 1.998751,2.753016 2.535008,2.789027 v 0.0078 h 1.049774 v -0.0078 c 0.535534,-0.03498 1.58621,-0.439282 2.537599,-2.789027 0.722976,-1.785606 1.238404,-3.439992 1.705559,-5.663592 0.771683,-3.673127 1.492849,-7.392672 2.14361,-11.10686 0.150501,-0.858975 0.631853,-2.261427 2.529824,-2.641282 1.019349,-0.20401 2.045638,-0.382083 3.079336,-0.492487 1.604837,-0.171392 1.931797,0.540748 2.143611,1.319346 0.802348,2.949307 1.523435,5.930856 2.584257,8.797359 1.095156,2.959281 4.15051,4.296754 5.497701,0 0.593136,-1.891759 0.710647,-2.500203 0.935724,-4.235382 0.63082,-4.863178 0.191949,-7.153462 -0.16589,-10.775081 -0.177937,-1.800855 -0.446031,-3.59171 -0.658377,-5.388835 C 46.422404,10.295665 43.500939,6.7271733 39.707718,5.9397579 38.432593,5.6750612 37.180565,5.5522466 35.912982,5.390247 34.08167,5.1562014 34.229139,5.30413 33.549048,3.9076042 33.125903,3.0386983 32.603106,2.5683014 31.874596,2.3212801 28.422832,1.1508646 24.300675,1.046 24.300675,1.046 v 0.031104 h -0.601351 z m 16.464592,8.9191846 a 1.3265722,1.3265722 0 0 1 1.324529,1.3271214 1.3265722,1.3265722 0 0 1 -1.324529,1.327122 1.3265722,1.3265722 0 0 1 -1.327121,-1.327122 1.3265722,1.3265722 0 0 1 1.327121,-1.3271214 z M 8.1911911,11.994747 h 1.9725369 c 0.182252,0 0.329188,0.146938 0.329188,0.329188 v 2.120284 h 2.133244 c 0.18225,-3e-6 0.326596,0.146936 0.326596,0.329187 v 1.972536 c 0,0.182254 -0.144346,0.329189 -0.326596,0.329189 h -2.133244 v 1.959577 c 0,0.182251 -0.146936,0.329189 -0.329188,0.329189 H 8.1911911 c -0.182251,0 -0.329189,-0.146938 -0.329187,-0.329189 v -1.959577 h -1.949208 c -0.182254,0 -0.329189,-0.146935 -0.329189,-0.329189 v -1.972536 c 0,-0.182251 0.146935,-0.32919 0.329189,-0.329187 h 1.949208 v -2.120284 c -2e-6,-0.18225 0.146936,-0.329188 0.329187,-0.329188 z m 29.0644649,0.684296 a 1.3265722,1.3265722 0 0 1 1.32712,1.327121 1.3265722,1.3265722 0 0 1 -1.32712,1.327121 1.3265722,1.3265722 0 0 1 -1.327121,-1.327121 1.3265722,1.3265722 0 0 1 1.327121,-1.327121 z m 5.813929,0 a 1.3265722,1.3265722 0 0 1 1.327121,1.327121 1.3265722,1.3265722 0 0 1 -1.327121,1.327121 1.3265722,1.3265722 0 0 1 -1.327121,-1.327121 1.3265722,1.3265722 0 0 1 1.327121,-1.327121 z m -9.937854,2.522049 a 1.7055928,1.7055928 0 0 1 1.705558,1.705557 1.7055928,1.7055928 0 0 1 -1.705558,1.705557 1.7055928,1.7055928 0 0 1 -1.705557,-1.705557 1.7055928,1.7055928 0 0 1 1.705557,-1.705557 z m 7.032185,0.194401 a 1.3265722,1.3265722 0 0 1 1.324529,1.327121 1.3265722,1.3265722 0 0 1 -1.324529,1.327121 1.3265722,1.3265722 0 0 1 -1.327121,-1.327121 1.3265722,1.3265722 0 0 1 1.327121,-1.327121 z m -3.605518,3.221898 a 1.7055928,1.7055928 0 0 1 1.705559,1.705557 1.7055928,1.7055928 0 0 1 -1.705559,1.705558 1.7055928,1.7055928 0 0 1 -1.705557,-1.705558 1.7055928,1.7055928 0 0 1 1.705557,-1.705557 z m -12.467677,5.650631 1.713334,0.710218 0.710217,1.715925 -0.710217,1.713334 -1.713334,0.710217 -1.715926,-0.710217 -0.710217,-1.713334 0.710217,-1.715925 z" /></g></svg>
