<?xml version="1.0" encoding="UTF-8" standalone="no"?>
<!-- Created with Inkscape (http://www.inkscape.org/) -->

<svg
   width="48"
   height="48"
   viewBox="0 0 48 48"
   version="1.1"
   id="svg1"
   xml:space="preserve"
   inkscape:version="1.4.2 (ebf0e940, 2025-05-08)"
   sodipodi:docname="nds.svg"
   xmlns:inkscape="http://www.inkscape.org/namespaces/inkscape"
   xmlns:sodipodi="http://sodipodi.sourceforge.net/DTD/sodipodi-0.dtd"
   xmlns="http://www.w3.org/2000/svg"
   xmlns:svg="http://www.w3.org/2000/svg"><sodipodi:namedview
     id="namedview1"
     pagecolor="#505050"
     bordercolor="#eeeeee"
     borderopacity="1"
     inkscape:showpageshadow="0"
     inkscape:pageopacity="0"
     inkscape:pagecheckerboard="0"
     inkscape:deskcolor="#505050"
     inkscape:document-units="px"
     inkscape:zoom="7.2741161"
     inkscape:cx="22.545695"
     inkscape:cy="22.889379"
     inkscape:window-width="1440"
     inkscape:window-height="778"
     inkscape:window-x="0"
     inkscape:window-y="31"
     inkscape:window-maximized="1"
     inkscape:current-layer="layer1" /><defs
     id="defs1" /><g
     inkscape:label="Ebene 1"
     inkscape:groupmode="layer"
     id="layer1"><path
       d="M 2.2748016,0 C 1.0154213,1.6565112e-7 0.003328,1.0076614 0.003328,2.2615261 V 5.9724995 H 12.322582 V 3.264492 H 35.606004 V 5.9724995 H 48 V 2.2615261 C 48,1.0076614 46.984657,0 45.725277,0 Z"
       style="stroke-width:8.30076"
       id="path2" /><path
       d="m 48,20.761391 c -0.02648,1.230639 -1.032094,2.212997 -2.274723,2.212997 H 48 Z"
       style="stroke-width:7.14057"
       id="path5" /><path
       d="m 2.2748016,22.974388 c -1.2593803,0 -2.2714736,-1.010898 -2.2714736,-2.264763 V 5.9724995 H 0 V 22.974388 Z"
       style="stroke-width:7.14057"
       id="path4" /><path
       d="M 48,5.9724995 H 35.606004 V 20.725803 H 12.322582 V 5.9724995 H 0.003328 V 20.709625 c 0,1.253865 1.0120933,2.264763 2.2714736,2.264763 H 45.725277 c 1.242629,0 2.248245,-0.982358 2.274723,-2.212997 z"
       style="stroke-width:7.14057"
       id="path3" /><path
       d="M 48,42.02758 H 35.817208 v 2.653007 H 12.533748 V 42.02758 H 0 v 3.710974 c 0,1.253865 1.0153444,2.261526 2.2747267,2.261526 H 45.725273 C 46.984656,48.00008 48,46.992419 48,45.738554 Z"
       style="stroke-width:8.30076"
       id="path9" /><path
       d="M 45.725273,25.025692 C 46.984656,25.025692 48,26.036589 48,27.290454 v -2.264762 z"
       style="stroke-width:7.14058"
       id="path8" /><path
       d="M 2.2747267,25.025692 C 1.0321455,25.025692 0.02655426,26.008119 0,27.238688 V 42.02758 H 12.533748 V 27.21604 h 23.28346 V 42.02758 H 48 V 27.290454 c 0,-1.253865 -1.015344,-2.264762 -2.274727,-2.264762 z"
       style="stroke-width:7.14058"
       id="path7" /><path
       d="m 0,25.025692 v 2.212996 c 0.02655426,-1.230569 1.0321455,-2.212996 2.2747267,-2.212996 z"
       style="stroke-width:7.14058"
       id="path6" /></g></svg>
