<?xml version="1.0" encoding="UTF-8" standalone="no"?>
<!-- Created with Inkscape (http://www.inkscape.org/) -->

<svg
   width="48"
   height="48"
   viewBox="0 0 48 48"
   version="1.1"
   id="svg1"
   inkscape:version="1.4.2 (ebf0e940, 2025-05-08)"
   sodipodi:docname="ns.svg"
   xmlns:inkscape="http://www.inkscape.org/namespaces/inkscape"
   xmlns:sodipodi="http://sodipodi.sourceforge.net/DTD/sodipodi-0.dtd"
   xmlns="http://www.w3.org/2000/svg"
   xmlns:svg="http://www.w3.org/2000/svg">
  <sodipodi:namedview
     id="namedview1"
     pagecolor="#505050"
     bordercolor="#eeeeee"
     borderopacity="1"
     inkscape:showpageshadow="0"
     inkscape:pageopacity="0"
     inkscape:pagecheckerboard="0"
     inkscape:deskcolor="#505050"
     inkscape:document-units="px"
     inkscape:zoom="3.0641294"
     inkscape:cx="102.31291"
     inkscape:cy="28.229878"
     inkscape:window-width="2560"
     inkscape:window-height="1318"
     inkscape:window-x="1440"
     inkscape:window-y="31"
     inkscape:window-maximized="1"
     inkscape:current-layer="layer1" />
  <defs
     id="defs1" />
  <g
     inkscape:label="Ebene 1"
     inkscape:groupmode="layer"
     id="layer1">
    <path
       d="m 41.25,12.519531 v 22.585938 h 1.777344 C 45.782043,35.105469 48,32.889464 48,30.134766 V 17.492187 c 0,-2.754698 -2.217957,-4.972656 -4.972656,-4.972656 z m 3.433594,11 a 1.5865384,1.5865384 0 0 1 1.585937,1.585938 1.5865384,1.5865384 0 0 1 -1.585937,1.585937 1.5865384,1.5865384 0 0 1 -1.587891,-1.585937 1.5865384,1.5865384 0 0 1 1.587891,-1.585938 z"
       style="stroke-width:4.88898"
       id="path5" />
    <path
       d="m 7.5,12.519531 v 22.585938 h 33 V 12.519531 Z M 9,15 H 39 V 32.087891 H 9 Z"
       style="stroke-width:4.88898"
       id="path4" />
    <path
       d="M 6.75,35.105469 V 12.519531 H 4.9726562 C 2.2179574,12.519531 0,14.737489 0,17.492187 v 12.642579 c 0,2.754698 2.2179574,4.970703 4.9726562,4.970703 z M 3.4902344,16.615234 a 1.5865384,1.5865384 0 0 1 1.5859375,1.585938 1.5865384,1.5865384 0 0 1 -1.5859375,1.58789 1.5865384,1.5865384 0 0 1 -1.5859375,-1.58789 1.5865384,1.5865384 0 0 1 1.5859375,-1.585938 z"
       style="stroke-width:4.88898"
       id="path3" />
  </g>
</svg>
