<?xml version="1.0" encoding="UTF-8" standalone="no"?>
<!-- Created with Inkscape (http://www.inkscape.org/) -->

<svg
   width="48"
   height="48"
   viewBox="0 0 48 48"
   version="1.1"
   id="svg1"
   xml:space="preserve"
   sodipodi:docname="ps2.svg"
   inkscape:version="1.4.2 (ebf0e940, 2025-05-08)"
   xmlns:inkscape="http://www.inkscape.org/namespaces/inkscape"
   xmlns:sodipodi="http://sodipodi.sourceforge.net/DTD/sodipodi-0.dtd"
   xmlns="http://www.w3.org/2000/svg"
   xmlns:svg="http://www.w3.org/2000/svg"><sodipodi:namedview
     id="namedview1"
     pagecolor="#505050"
     bordercolor="#eeeeee"
     borderopacity="1"
     inkscape:showpageshadow="0"
     inkscape:pageopacity="0"
     inkscape:pagecheckerboard="0"
     inkscape:deskcolor="#505050"
     inkscape:document-units="px"
     inkscape:zoom="8.6666667"
     inkscape:cx="-6.9807692"
     inkscape:cy="25.211538"
     inkscape:window-width="2560"
     inkscape:window-height="1318"
     inkscape:window-x="1440"
     inkscape:window-y="31"
     inkscape:window-maximized="1"
     inkscape:current-layer="layer1" /><defs
     id="defs1" /><g
     inkscape:label="Ebene 1"
     inkscape:groupmode="layer"
     id="layer1"><path
       d="m 13.011719,13.34375 -7.3437503,0.0332 c 0,0 0.014949,-0.16072 0.042969,-0.410156 a 8.0871859,8.0871859 0 0 0 -3.5195312,5.640625 l 10.3359377,5.935547 a 4.3557692,4.3557692 0 0 1 0.484375,-0.615235 z"
       style="stroke-width:5.10932"
       id="path24" /><path
       d="m 36.861328,13.361328 v 10.384766 l 8.947266,-5.138672 a 8.0871859,8.0871859 0 0 0 -3.554688,-5.664063 c 0.04754,0.238204 0.07813,0.392579 0.07813,0.392579 z"
       style="stroke-width:5.10932"
       id="path32" /><path
       d="m 32.792969,13.335938 a 8.0871859,8.0871859 0 0 0 -3.085938,6.353515 8.0871859,8.0871859 0 0 0 0.628906,3.126953 4.3557692,4.3557692 0 0 1 1.482422,-0.259765 4.3557692,4.3557692 0 0 1 3.654297,1.986328 l 1.388672,-0.796875 V 13.361328 l -3.646484,0.01563 c 0,0 0.0012,-0.01404 0.0039,-0.04101 z"
       style="stroke-width:5.05718"
       id="path29" /><path
       d="m 20.539062,26.869141 h 6.923829 a 4.3557692,4.3557692 0 0 1 2.873046,-4.052735 8.0871859,8.0871859 0 0 1 -0.628906,-3.126953 8.0871859,8.0871859 0 0 1 3.085938,-6.353515 H 15.208984 a 8.0871859,8.0871859 0 0 1 3.083985,6.353515 8.0871859,8.0871859 0 0 1 -0.628907,3.126953 4.3557692,4.3557692 0 0 1 2.875,4.052735 z"
       style="stroke-width:5.05718"
       id="path28" /><path
       d="m 14.785156,13.335938 -1.773437,0.0078 v 10.583984 a 4.3557692,4.3557692 0 0 1 3.171875,-1.36914 4.3557692,4.3557692 0 0 1 1.480468,0.257812 8.0871859,8.0871859 0 0 0 0.628907,-3.126953 8.0871859,8.0871859 0 0 0 -3.083985,-6.353515 z"
       style="stroke-width:5.05718"
       id="path27" /><path
       d="m 11.880859,27.601562 a 4.3557692,4.3557692 0 0 1 -0.05469,-0.6875 4.3557692,4.3557692 0 0 1 0.701172,-2.371093 L 2.1914063,18.607422 a 8.0871859,8.0871859 0 0 0 -0.072266,1.082031 8.0871859,8.0871859 0 0 0 8.0859374,8.087891 8.0871859,8.0871859 0 0 0 1.675781,-0.175782 z"
       style="stroke-width:5.05718"
       id="path23" /><path
       d="m 13.814453,30.570312 a 4.3557692,4.3557692 0 0 1 -1.933594,-2.96875 8.0871859,8.0871859 0 0 1 -1.675781,0.175782 8.0871859,8.0871859 0 0 1 -8.0859374,-8.087891 8.0871859,8.0871859 0 0 1 0.072266,-1.082031 c 0,0 -1.57170993,10.078926 -2.05273443,13.626953 -1.18152637,8.714913 7.56949493,8.32518 9.98437513,4.455078 0.954315,-1.529391 2.435998,-4.005075 3.691406,-6.119141 z"
       style="stroke-width:5.05718"
       id="path22" /><path
       d="m 35.472656,24.542969 a 4.3557692,4.3557692 0 0 1 0,0.002 4.3557692,4.3557692 0 0 1 0.701172,2.324219 h 0.6875 v -3.123047 z"
       style="stroke-width:5.05718"
       id="path35" /><path
       d="m 45.808594,18.607422 a 8.0871859,8.0871859 0 0 1 0.07422,1.082031 8.0871859,8.0871859 0 0 1 -8.08789,8.087891 8.0871859,8.0871859 0 0 1 -1.675781,-0.175782 4.3557692,4.3557692 0 0 1 -1.933594,2.96875 c 1.255401,2.114054 2.737099,4.589763 3.691406,6.119141 2.41488,3.870102 11.165901,4.259836 9.984375,-4.455078 -0.481025,-3.548027 -2.052734,-13.626953 -2.052734,-13.626953 z"
       style="stroke-width:5.05718"
       id="path34" /><path
       d="m 45.808594,18.607422 -8.947266,5.138672 v 3.123047 h -0.6875 a 4.3557692,4.3557692 0 0 1 0,0.04492 4.3557692,4.3557692 0 0 1 -0.05469,0.6875 8.0871859,8.0871859 0 0 0 1.675781,0.175782 8.0871859,8.0871859 0 0 0 8.08789,-8.087891 8.0871859,8.0871859 0 0 0 -0.07422,-1.082031 z"
       style="stroke-width:5.05718"
       id="path33" /><path
       d="M 9.9589844,8.6953125 C 9.2409011,8.7147918 8.5289617,8.8306544 7.8535156,9.0449219 7.053879,9.2985849 6.3741129,9.4689949 6.0800781,10.613281 5.9183492,11.242676 5.7786646,12.363885 5.7109375,12.966797 a 8.0871859,8.0871859 0 0 1 4.4941405,-1.363281 8.0871859,8.0871859 0 0 1 4.507813,1.373047 C 14.605096,12.436606 14.403691,11.41556 14.291016,10.818359 14.004081,9.297555 13.207305,9.186615 12.103516,8.921875 11.401396,8.7534735 10.677068,8.6758333 9.9589844,8.6953125 Z"
       style="stroke-width:5.05718"
       id="path26" /><path
       d="m 14.712891,12.976563 a 8.0871859,8.0871859 0 0 0 -4.507813,-1.373047 8.0871859,8.0871859 0 0 0 -4.4941405,1.363281 c -0.02802,0.249436 -0.042969,0.410156 -0.042969,0.410156 l 7.3437503,-0.0332 v -0.0078 h 1.773437 c -2.5e-5,-1.27e-4 -0.02842,-0.139738 -0.07226,-0.359375 z"
       style="stroke-width:5.05718"
       id="path25" /><path
       d="m 42.253906,12.943359 c -0.109258,-0.547476 -0.305549,-1.53951 -0.416015,-2.125 -0.286935,-1.520804 -1.083712,-1.631744 -2.1875,-1.896484 -1.404241,-0.336803 -2.899108,-0.3054881 -4.25,0.1230469 -0.799637,0.253663 -1.479404,0.424073 -1.773438,1.5683591 -0.164477,0.640089 -0.30666,1.789853 -0.373047,2.384766 a 8.0871859,8.0871859 0 0 1 4.541016,-1.394531 8.0871859,8.0871859 0 0 1 4.458984,1.339843 z"
       style="stroke-width:5.05718"
       id="path31" /><path
       d="m 33.21875,13.335938 h 3.642578 v 0.02539 l 5.470703,-0.02539 c 0,0 -0.03059,-0.154375 -0.07813,-0.392579 a 8.0871859,8.0871859 0 0 0 -4.458984,-1.339843 8.0871859,8.0871859 0 0 0 -4.541016,1.394531 c -0.01779,0.159456 -0.02913,0.278659 -0.03516,0.337891 z"
       style="stroke-width:5.05718"
       id="path30" /><path
       d="M 19.265625,26.869141 A 3,3 0 0 1 19.269531,27 a 3,3 0 0 1 -3,3 3,3 0 0 1 -1.773437,-0.580078 c -0.215676,0.364331 -0.444727,0.751436 -0.681641,1.15039 a 4.3557692,4.3557692 0 0 0 2.369141,0.699219 4.3557692,4.3557692 0 0 0 4.355468,-4.355469 4.3557692,4.3557692 0 0 0 0,-0.04492 z"
       style="stroke-width:5.85271"
       id="path48" /><path
       d="m 13.814453,30.570312 c 0.236914,-0.398954 0.465965,-0.786059 0.681641,-1.15039 a 3,3 0 0 1 -1.222656,-2.248047 8.0871859,8.0871859 0 0 1 -1.392579,0.429687 4.3557692,4.3557692 0 0 0 1.933594,2.96875 z"
       style="stroke-width:5.85271"
       id="path47" /><path
       d="m 13.011719,24.822266 v 2.046875 h 0.259765 a 3,3 0 0 1 0.539063,-1.587891 z"
       style="stroke-width:5.85271"
       id="path46" /><path
       d="m 13.011719,24.822266 -0.484375,-0.279297 a 4.3557692,4.3557692 0 0 0 -0.701172,2.371093 4.3557692,4.3557692 0 0 0 0.05469,0.6875 8.0871859,8.0871859 0 0 0 1.392579,-0.429687 A 3,3 0 0 1 13.269531,27 a 3,3 0 0 1 0.002,-0.130859 h -0.259765 z"
       style="stroke-width:5.85271"
       id="path45" /><path
       d="m 13.011719,23.927734 a 4.3557692,4.3557692 0 0 0 -0.484375,0.615235 l 0.484375,0.279297 z"
       style="stroke-width:5.85271"
       id="path44" /><path
       d="m 13.011719,23.927734 v 0.894532 l 0.798828,0.458984 A 3,3 0 0 1 16.269531,24 a 3,3 0 0 1 0.722656,0.08789 8.0871859,8.0871859 0 0 0 0.671875,-1.271485 4.3557692,4.3557692 0 0 0 -1.480468,-0.257812 4.3557692,4.3557692 0 0 0 -3.171875,1.36914 z"
       style="stroke-width:5.85271"
       id="path43" /><path
       d="m 19.265625,26.869141 h 1.273437 a 4.3557692,4.3557692 0 0 0 -2.875,-4.052735 8.0871859,8.0871859 0 0 1 -0.671875,1.271485 3,3 0 0 1 2.273438,2.78125 z"
       style="stroke-width:5.85271"
       id="path42" /><path
       d="M 30.335937,22.816406 A 8.0871859,8.0871859 0 0 0 31.021484,24.107422 3,3 0 0 1 31.818359,24 a 3,3 0 0 1 2.433594,1.244141 l 1.220703,-0.699219 a 4.3557692,4.3557692 0 0 0 -3.654297,-1.988281 4.3557692,4.3557692 0 0 0 -1.482422,0.259765 z"
       style="stroke-width:5.85271"
       id="path41" /><path
       d="m 27.462891,26.869141 h 1.357421 a 3,3 0 0 1 2.201172,-2.761719 8.0871859,8.0871859 0 0 1 -0.685547,-1.291016 4.3557692,4.3557692 0 0 0 -2.873046,4.052735 z"
       style="stroke-width:5.85271"
       id="path40" /><path
       d="M 33.529297,29.464844 A 3,3 0 0 1 31.818359,30 a 3,3 0 0 1 -3,-3 3,3 0 0 1 0.002,-0.130859 h -1.357421 a 4.3557692,4.3557692 0 0 0 0,0.04492 4.3557692,4.3557692 0 0 0 4.355468,4.355469 4.3557692,4.3557692 0 0 0 2.367188,-0.699219 C 33.958058,30.18723 33.73739,29.816327 33.529297,29.464844 Z"
       style="stroke-width:5.85271"
       id="path39" /><path
       d="m 36.119141,27.601562 a 8.0871859,8.0871859 0 0 1 -1.308594,-0.394531 3,3 0 0 1 -1.28125,2.257813 c 0.208093,0.351483 0.428761,0.722386 0.65625,1.105468 a 4.3557692,4.3557692 0 0 0 1.933594,-2.96875 z"
       style="stroke-width:5.85271"
       id="path38" /><path
       d="m 36.119141,27.601562 a 4.3557692,4.3557692 0 0 0 0.05469,-0.6875 4.3557692,4.3557692 0 0 0 0,-0.04492 H 34.814453 A 3,3 0 0 1 34.818359,27 a 3,3 0 0 1 -0.0078,0.207031 8.0871859,8.0871859 0 0 0 1.308594,0.394531 z"
       style="stroke-width:5.85271"
       id="path37" /><path
       d="m 36.173828,26.869141 a 4.3557692,4.3557692 0 0 0 -0.701172,-2.324219 l -1.220703,0.699219 a 3,3 0 0 1 0.5625,1.625 z"
       style="stroke-width:5.85271"
       id="path36" /></g></svg>
