<?xml version="1.0" encoding="UTF-8" standalone="no"?>
<!-- Created with Inkscape (http://www.inkscape.org/) -->

<svg
   width="48"
   height="48"
   viewBox="0 0 48 48"
   version="1.1"
   id="svg1"
   sodipodi:docname="psp.svg"
   inkscape:version="1.4.2 (ebf0e940, 2025-05-08)"
   xmlns:inkscape="http://www.inkscape.org/namespaces/inkscape"
   xmlns:sodipodi="http://sodipodi.sourceforge.net/DTD/sodipodi-0.dtd"
   xmlns="http://www.w3.org/2000/svg"
   xmlns:svg="http://www.w3.org/2000/svg">
  <sodipodi:namedview
     id="namedview1"
     pagecolor="#505050"
     bordercolor="#eeeeee"
     borderopacity="1"
     inkscape:showpageshadow="0"
     inkscape:pageopacity="0"
     inkscape:pagecheckerboard="0"
     inkscape:deskcolor="#505050"
     inkscape:document-units="px"
     inkscape:zoom="12.938041"
     inkscape:cx="25.274305"
     inkscape:cy="20.211715"
     inkscape:window-width="1440"
     inkscape:window-height="778"
     inkscape:window-x="0"
     inkscape:window-y="31"
     inkscape:window-maximized="1"
     inkscape:current-layer="layer1" />
  <defs
     id="defs1" />
  <g
     inkscape:label="Ebene 1"
     inkscape:groupmode="layer"
     id="layer1">
    <path
       d="M 5.1992187,12 C 5.1992187,12 0,16.126331 0,24 0,31.652789 5.1992187,36 5.1992187,36 H 42.800781 C 42.800781,36 48,31.652789 48,24 48,16.347211 42.878906,12 42.878906,12 Z M 10,13.835938 H 38 V 33.003906 H 10 Z M 5.9121094,27.902344 a 1.5071833,1.5071833 0 0 1 1.5078125,1.507812 1.5071833,1.5071833 0 0 1 -1.5078125,1.50586 1.5071833,1.5071833 0 0 1 -1.5058594,-1.50586 1.5071833,1.5071833 0 0 1 1.5058594,-1.507812 z"
       style="stroke-width:5"
       id="path7" />
  </g>
</svg>
