<?xml version="1.0" encoding="UTF-8" standalone="no"?>
<!-- Created with Inkscape (http://www.inkscape.org/) -->

<svg
   width="48"
   height="48"
   viewBox="0 0 48 48"
   version="1.1"
   id="svg1"
   xml:space="preserve"
   inkscape:version="1.4.2 (ebf0e940, 2025-05-08)"
   sodipodi:docname="psx.svg"
   xmlns:inkscape="http://www.inkscape.org/namespaces/inkscape"
   xmlns:sodipodi="http://sodipodi.sourceforge.net/DTD/sodipodi-0.dtd"
   xmlns="http://www.w3.org/2000/svg"
   xmlns:svg="http://www.w3.org/2000/svg"><sodipodi:namedview
     id="namedview1"
     pagecolor="#505050"
     bordercolor="#eeeeee"
     borderopacity="1"
     inkscape:showpageshadow="0"
     inkscape:pageopacity="0"
     inkscape:pagecheckerboard="0"
     inkscape:deskcolor="#505050"
     inkscape:document-units="px"
     inkscape:zoom="8.6666667"
     inkscape:cx="20.019231"
     inkscape:cy="33.519231"
     inkscape:window-width="2560"
     inkscape:window-height="1318"
     inkscape:window-x="1440"
     inkscape:window-y="31"
     inkscape:window-maximized="1"
     inkscape:current-layer="layer1" /><defs
     id="defs1" /><g
     inkscape:label="Ebene 1"
     inkscape:groupmode="layer"
     id="layer1"><circle
       style="fill:#000000;stroke-width:5.10932"
       id="path1"
       cx="10.205866"
       cy="19.690248"
       r="8.0871859" /><circle
       style="fill:#000000;stroke-width:5.10932"
       id="path1-2"
       cx="37.794716"
       cy="19.690256"
       r="8.0871859" /><rect
       style="fill:#000000;stroke-width:5.05718"
       id="rect1"
       width="23.848948"
       height="13.533659"
       x="13.011623"
       y="13.336032" /><path
       style="fill:#000000;stroke-width:5.05718"
       d="m 2.1908857,18.607145 c 0,0 -1.57171792,10.078469 -2.05274242,13.626496 -1.18152638,8.714913 7.57031962,8.326306 9.98519972,4.456204 1.931042,-3.0947 6.024128,-10.067722 6.024128,-10.067722 z"
       id="path2"
       sodipodi:nodetypes="csscc" /><path
       style="fill:#000000;stroke-width:5.05718"
       d="m 45.809374,18.607266 c 0,0 1.571718,10.078468 2.052743,13.626495 1.181526,8.714914 -7.57032,8.326306 -9.9852,4.456204 -1.931042,-3.0947 -6.024128,-10.067721 -6.024128,-10.067721 z"
       id="path2-4"
       sodipodi:nodetypes="csscc" /><path
       style="fill:#000000;stroke-width:5.05718"
       d="m 5.6671379,13.377293 c 0,0 0.1839724,-1.87471 0.4126116,-2.764497 0.2940348,-1.1442864 0.9745929,-1.3142614 1.7742295,-1.5679244 1.3508921,-0.428535 2.845659,-0.460586 4.249899,-0.123783 1.103789,0.26474 1.899907,0.377208 2.186842,1.8980124 0.158529,0.840233 0.495133,2.516931 0.495133,2.516931 z"
       id="path3"
       sodipodi:nodetypes="csssscc" /><path
       style="fill:#000000;stroke-width:5.05718"
       d="m 33.214182,13.377462 c 0,0 0.183972,-1.87471 0.412611,-2.764497 0.294034,-1.1442864 0.974593,-1.3142614 1.77423,-1.5679244 1.350892,-0.428535 2.845658,-0.460586 4.249899,-0.123783 1.103788,0.26474 1.899906,0.377208 2.186841,1.8980124 0.158529,0.840233 0.495133,2.516931 0.495133,2.516931 z"
       id="path3-9"
       sodipodi:nodetypes="csssscc" /></g></svg>
