<?xml version="1.0" encoding="UTF-8" standalone="no"?>
<!-- Created with Inkscape (http://www.inkscape.org/) -->

<svg
   width="48"
   height="48"
   viewBox="0 0 48 48"
   version="1.1"
   id="svg1"
   xml:space="preserve"
   inkscape:version="1.4.2 (ebf0e940, 2025-05-08)"
   sodipodi:docname="scm.svg"
   xmlns:inkscape="http://www.inkscape.org/namespaces/inkscape"
   xmlns:sodipodi="http://sodipodi.sourceforge.net/DTD/sodipodi-0.dtd"
   xmlns="http://www.w3.org/2000/svg"
   xmlns:svg="http://www.w3.org/2000/svg"><sodipodi:namedview
     id="namedview1"
     pagecolor="#505050"
     bordercolor="#eeeeee"
     borderopacity="1"
     inkscape:showpageshadow="0"
     inkscape:pageopacity="0"
     inkscape:pagecheckerboard="0"
     inkscape:deskcolor="#505050"
     inkscape:document-units="px"
     inkscape:zoom="4.615384"
     inkscape:cx="11.700001"
     inkscape:cy="29.14167"
     inkscape:window-width="1440"
     inkscape:window-height="778"
     inkscape:window-x="0"
     inkscape:window-y="31"
     inkscape:window-maximized="1"
     inkscape:current-layer="layer1" /><defs
     id="defs1" /><g
     inkscape:label="Ebene 1"
     inkscape:groupmode="layer"
     id="layer1"><path
       style="fill:#000000;stroke-width:6.33236"
       d="m 38.823086,12.848806 c 1.277057,-1.954688 3.088259,-4.7392238 3.088259,-4.7392238 0,0 -8.864583,-10.3227761 -22.66223,-7.67532347 C 13.770598,1.4854607 8.417359,5.2242018 7.933722,12.764485 c -0.4597,7.167095 4.865962,11.406686 9.77037,14.674004 1.532948,1.02125 3.135145,1.955411 4.732097,2.873355 1.367795,0.786223 3.100807,2.090987 3.600195,2.572877 0.914085,0.882056 1.449048,2.46315 0.932198,3.549523 -0.691187,1.452817 -3.104578,1.341893 -4.696846,1.111467 -2.720022,-0.393628 -7.71277,-3.092465 -9.578798,-4.959014 C 11.6395,31.532966 11.103536,31.842583 10.332429,32.848867 8.847484,34.786701 5.779,38.585471 5.779,38.585471 c 0,0 3.544176,4.157965 5.754004,5.715031 3.183411,2.243061 7.519198,3.763925 11.550697,3.697399 7.902872,-0.130411 12.893339,-1.906184 16.623108,-6.497559 2.597993,-3.19815 3.072714,-8.252721 1.93215,-12.212122 -1.405812,-4.880191 -4.84786,-8.068596 -9.609576,-10.747991 -2.051832,-1.154556 -4.027057,-2.196933 -6.188505,-3.404346 -0.40436,-0.225881 -2.099049,-1.196312 -2.568395,-2.150968 -0.874492,-1.778728 -0.282397,-3.5724378 2.812616,-3.3353118 3.455044,0.264711 8.194504,3.1987528 9.476736,4.3106868 1.103871,0.957262 1.676881,1.313587 2.648961,-0.174299 z"
       id="path1"
       sodipodi:nodetypes="scssssssssscsssssssssss" /></g></svg>
