<?xml version="1.0" encoding="UTF-8" standalone="no"?>
<!-- Created with Inkscape (http://www.inkscape.org/) -->

<svg
   width="48"
   height="48"
   viewBox="0 0 48 48"
   version="1.1"
   id="svg1"
   xml:space="preserve"
   inkscape:version="1.4.2 (ebf0e940, 2025-05-08)"
   sodipodi:docname="snes.svg"
   xmlns:inkscape="http://www.inkscape.org/namespaces/inkscape"
   xmlns:sodipodi="http://sodipodi.sourceforge.net/DTD/sodipodi-0.dtd"
   xmlns="http://www.w3.org/2000/svg"
   xmlns:svg="http://www.w3.org/2000/svg"><sodipodi:namedview
     id="namedview1"
     pagecolor="#505050"
     bordercolor="#eeeeee"
     borderopacity="1"
     inkscape:showpageshadow="0"
     inkscape:pageopacity="0"
     inkscape:pagecheckerboard="0"
     inkscape:deskcolor="#505050"
     inkscape:document-units="px"
     inkscape:zoom="5.9793362"
     inkscape:cx="25.420882"
     inkscape:cy="19.818253"
     inkscape:window-width="1440"
     inkscape:window-height="778"
     inkscape:window-x="0"
     inkscape:window-y="31"
     inkscape:window-maximized="1"
     inkscape:current-layer="layer1" /><defs
     id="defs1" /><g
     inkscape:label="Ebene 1"
     inkscape:groupmode="layer"
     id="layer1"><path
       d="M 10.096401,13.790021 A 10.210503,10.210493 0 0 0 3.6772347e-8,24.000743 10.210503,10.210493 0 0 0 10.210732,34.211464 10.210503,10.210493 0 0 0 16.744186,31.84587 H 10.096401 V 28.068816 H 8.6412888 V 25.47872 H 6.017929 v -2.710664 h 2.6233598 v -2.76679 h 1.4551122 z"
       style="display:inline;stroke-width:6.28874"
       id="path8" /><path
       d="m 37.828765,13.7921 v 1.216057 a 8.9388876,8.938879 0 0 1 8.90113,8.938539 8.9388876,8.938879 0 0 1 -8.938548,8.938539 A 8.9388876,8.938879 0 0 1 33.60686,31.84587 H 31.255814 A 10.210503,10.210493 0 0 0 37.789268,34.209385 10.210503,10.210493 0 0 0 48,24.000743 10.210503,10.210493 0 0 0 37.828765,13.7921 Z"
       style="display:inline;stroke-width:6.28874"
       id="path12" /><path
       d="m 37.689489,13.790021 a 10.210503,10.210493 0 0 0 -10.110952,10.210722 10.210503,10.210493 0 0 0 3.677277,7.845127 h 2.351046 a 8.9388876,8.938879 0 0 1 -4.75406,-7.899174 8.9388876,8.938879 0 0 1 8.938547,-8.938539 8.9388876,8.938879 0 0 1 0.03742,0 V 13.7921 a 10.210503,10.210493 0 0 0 -0.0395,-0.0021 z"
       style="display:inline;stroke-width:7.30079"
       id="path11" /><path
       d="M 16.744186,31.84587 H 31.255814 A 10.210503,10.210493 0 0 1 27.578537,24.000743 10.210503,10.210493 0 0 1 37.689489,13.790021 H 10.223204 a 10.210503,10.210493 0 0 1 10.198259,10.210722 10.210503,10.210493 0 0 1 -3.677277,7.845127 z"
       style="display:inline;stroke-width:7.30079"
       id="path10" /><path
       d="m 10.096401,13.790021 v 6.211245 h 1.255555 v 2.76679 h 2.733532 v 2.710664 h -2.733532 v 2.590096 h -1.255555 v 3.777054 h 6.647785 A 10.210503,10.210493 0 0 0 20.421463,24.000743 10.210503,10.210493 0 0 0 10.223204,13.790021 Z"
       style="display:inline;stroke-width:7.30079"
       id="path9" /><path
       d="m 37.828765,22.129885 v -3.35507 a 1.6780094,1.6780078 0 0 0 -1.629726,1.677536 1.6780094,1.6780078 0 0 0 1.629726,1.677534 z"
       style="stroke-width:5.32155"
       id="path15" /><path
       d="m 37.828765,22.129885 a 1.6780094,1.6780078 0 0 0 0.04988,0.0021 1.6780094,1.6780078 0 0 0 1.677536,-1.679614 1.6780094,1.6780078 0 0 0 -1.677536,-1.677536 1.6780094,1.6780078 0 0 0 -0.04988,0 z"
       style="stroke-width:5.32155"
       id="path14" /><path
       d="m 37.828765,29.318134 v -3.35507 a 1.6780094,1.6780078 0 0 0 -1.631806,1.677535 1.6780094,1.6780078 0 0 0 1.631806,1.677535 z"
       style="stroke-width:5.32155"
       id="path17" /><path
       d="m 37.828765,29.318134 a 1.6780094,1.6780078 0 0 0 0.04781,0 1.6780094,1.6780078 0 0 0 1.677537,-1.677535 1.6780094,1.6780078 0 0 0 -1.677537,-1.677535 1.6780094,1.6780078 0 0 0 -0.04781,0 z"
       style="stroke-width:5.32155"
       id="path16" /><path
       d="m 42.470573,22.346073 a 1.6780094,1.6780078 0 0 0 -1.677537,1.677535 1.6780094,1.6780078 0 0 0 1.677537,1.677536 1.6780094,1.6780078 0 0 0 1.677537,-1.677536 1.6780094,1.6780078 0 0 0 -1.677537,-1.677535 z"
       style="stroke-width:5.32155"
       id="path18" /><path
       d="m 33.216058,22.346073 a 1.6780094,1.6780078 0 0 0 -1.677537,1.677535 1.6780094,1.6780078 0 0 0 1.677537,1.679615 1.6780094,1.6780078 0 0 0 1.677537,-1.679615 1.6780094,1.6780078 0 0 0 -1.677537,-1.677535 z"
       style="stroke-width:5.32155"
       id="path13" /></g></svg>
