<?xml version="1.0" encoding="UTF-8" standalone="no"?>
<!-- Created with Inkscape (http://www.inkscape.org/) -->

<svg
   width="48"
   height="48"
   viewBox="0 0 48 48"
   version="1.1"
   id="svg1"
   xml:space="preserve"
   inkscape:version="1.4.2 (ebf0e940, 2025-05-08)"
   sodipodi:docname="wiiu.svg"
   xmlns:inkscape="http://www.inkscape.org/namespaces/inkscape"
   xmlns:sodipodi="http://sodipodi.sourceforge.net/DTD/sodipodi-0.dtd"
   xmlns="http://www.w3.org/2000/svg"
   xmlns:svg="http://www.w3.org/2000/svg"><sodipodi:namedview
     id="namedview1"
     pagecolor="#505050"
     bordercolor="#eeeeee"
     borderopacity="1"
     inkscape:showpageshadow="0"
     inkscape:pageopacity="0"
     inkscape:pagecheckerboard="0"
     inkscape:deskcolor="#505050"
     inkscape:document-units="px"
     inkscape:zoom="3.9173816"
     inkscape:cx="33.568341"
     inkscape:cy="19.273078"
     inkscape:window-width="1440"
     inkscape:window-height="778"
     inkscape:window-x="0"
     inkscape:window-y="31"
     inkscape:window-maximized="1"
     inkscape:current-layer="layer1" /><defs
     id="defs1" /><g
     inkscape:label="Ebene 1"
     inkscape:groupmode="layer"
     id="layer1"><path
       d="M 6.0122283,11.294 C 2.680978,11.294 0,13.974978 0,17.306228 v 13.387908 c 0,3.33125 2.680978,6.012228 6.0122283,6.012228 H 41.987771 C 45.319022,36.706364 48,34.025386 48,30.694136 V 17.306228 C 48,13.974978 45.319022,11.294 41.987771,11.294 Z m -1.8036685,4.157609 a 1.7322784,1.7322784 0 0 1 1.732337,1.732337 1.7322784,1.7322784 0 0 1 -1.732337,1.732336 1.7322784,1.7322784 0 0 1 -1.7323369,-1.732336 1.7322784,1.7322784 0 0 1 1.7323369,-1.732337 z m 39.7010872,0.002 a 1.7322784,1.7322784 0 0 1 1.732336,1.73234 1.7322784,1.7322784 0 0 1 -1.732336,1.730298 1.7322784,1.7322784 0 0 1 -1.732338,-1.730298 1.7322784,1.7322784 0 0 1 1.732338,-1.732337 z M 11.011549,16.729462 H 36.98845 V 31.623483 H 11.011549 Z m 13.035325,16.930027 a 0.71620249,0.71620249 0 0 1 0.717391,0.717391 0.71620249,0.71620249 0 0 1 -0.717391,0.715354 0.71620249,0.71620249 0 0 1 -0.715352,-0.715354 0.71620249,0.71620249 0 0 1 0.715352,-0.717391 z"
       style="stroke-width:5.21739"
       id="path4" /></g></svg>
